<?xml version="1.0" standalone="yes"?>
<svg xmlns="http://www.w3.org/2000/svg" width="522" height="187">
<path style="fill:#ffffff; stroke:none;" d="M0 0L0 187L522 187L522 0L0 0z"/>
<path style="fill:#adadad; stroke:none;" d="M9 11L10 12L9 11z"/>
<path style="fill:#000000; stroke:none;" d="M10 11L10 171L15 171L15 11L10 11z"/>
<path style="fill:#303030; stroke:none;" d="M20 11L20 171C21.6611 167.041 21 162.26 21 158L21 135L21 52L21 25C21 20.4645 21.7688 15.2152 20 11z"/>
<path style="fill:#000000; stroke:none;" d="M21 11L21 171L25 171L25 11L21 11z"/>
<path style="fill:#7c7c7c; stroke:none;" d="M25 11L25 171C26.6611 167.041 26 162.26 26 158L26 135L26 52L26 25C26 20.4645 26.7688 15.2152 25 11z"/>
<path style="fill:#cfcfcf; stroke:none;" d="M30 11L30 171C31.7687 166.785 31 161.536 31 157L31 130L31 47L31 24C31 19.7397 31.6611 14.9586 30 11z"/>
<path style="fill:#000000; stroke:none;" d="M31 11L31 171L36 171L36 11L31 11M41 11L41 171L62 171L62 11L41 11z"/>
<path style="fill:#7f7f7f; stroke:none;" d="M72 11L72 171C73.7687 166.785 73 161.536 73 157L73 130L73 47L73 24C73 19.7397 73.6611 14.9586 72 11z"/>
<path style="fill:#000000; stroke:none;" d="M73 11L73 171L77 171L77 11L73 11z"/>
<path style="fill:#303030; stroke:none;" d="M77 11L77 171C78.7687 166.785 78 161.536 78 157L78 130L78 47L78 24C78 19.7397 78.6611 14.9586 77 11z"/>
<path style="fill:#000000; stroke:none;" d="M88 11L88 171L98 171L98 11L88 11z"/>
<path style="fill:#7c7c7c; stroke:none;" d="M98 11L98 171C99.7687 166.785 99 161.536 99 157L99 130L99 47L99 24C99 19.7397 99.6611 14.9586 98 11z"/>
<path style="fill:#000000; stroke:none;" d="M109 11L109 171L119 171L119 11L109 11z"/>
<path style="fill:#4c4c4c; stroke:none;" d="M119 11L120 12L119 11z"/>
<path style="fill:#cbcbcb; stroke:none;" d="M124 11L124 171C125.769 166.785 125 161.536 125 157L125 130L125 47L125 24C125 19.7397 125.661 14.9586 124 11z"/>
<path style="fill:#000000; stroke:none;" d="M125 11L125 171L135 171L135 11L125 11z"/>
<path style="fill:#828282; stroke:none;" d="M145 11L145 171C146.661 167.041 146 162.26 146 158L146 135L146 52L146 25C146 20.4645 146.769 15.2152 145 11z"/>
<path style="fill:#000000; stroke:none;" d="M146 11L146 171L150 171L150 11L146 11z"/>
<path style="fill:#303030; stroke:none;" d="M150 11L150 171C151.661 167.041 151 162.26 151 158L151 135L151 52L151 25C151 20.4644 151.769 15.2152 150 11z"/>
<path style="fill:#7d7d7d; stroke:none;" d="M166 11L166 168C167.661 164.041 167 159.26 167 155L167 132L167 51L167 25C167 20.4644 167.769 15.2152 166 11z"/>
<path style="fill:#000000; stroke:none;" d="M167 11L167 171L171 171L171 11L167 11z"/>
<path style="fill:#303030; stroke:none;" d="M171 11L171 171C172.661 167.041 172 162.26 172 158L172 135L172 52L172 25C172 20.4645 172.769 15.2152 171 11z"/>
<path style="fill:#000000; stroke:none;" d="M177 11L177 171L197 171L197 11L177 11z"/>
<path style="fill:#2e2e2e; stroke:none;" d="M197 11L197 171C198.661 167.041 198 162.26 198 158L198 135L198 52L198 25C198 20.4645 198.769 15.2152 197 11z"/>
<path style="fill:#000000; stroke:none;" d="M203 11L203 171L208 171L208 11L203 11z"/>
<path style="fill:#cfcfcf; stroke:none;" d="M208 11L208 171C209.661 167.041 209 162.26 209 158L209 135L209 52L209 25C209 20.4645 209.769 15.2152 208 11z"/>
<path style="fill:#808080; stroke:none;" d="M213 11L213 171C214.661 167.041 214 162.26 214 158L214 135L214 52L214 25C214 20.4645 214.769 15.2152 213 11z"/>
<path style="fill:#000000; stroke:none;" d="M214 11L214 171L224 171L224 11L214 11z"/>
<path style="fill:#2e2e2e; stroke:none;" d="M234 11L234 171C235.661 167.041 235 162.26 235 158L235 135L235 52L235 25C235 20.4645 235.769 15.2152 234 11z"/>
<path style="fill:#000000; stroke:none;" d="M235 11L235 171L244 171L244 11L235 11z"/>
<path style="fill:#353535; stroke:none;" d="M244 11L244 171C245.661 167.041 245 162.26 245 158L245 135L245 52L245 25C245 20.4644 245.769 15.2152 244 11z"/>
<path style="fill:#000000; stroke:none;" d="M250 11L250 171L255 171L255 11L250 11z"/>
<path style="fill:#d0d0d0; stroke:none;" d="M255 11L255 169C256.661 165.041 256 160.26 256 156L256 133L256 51L256 25C256 20.4645 256.769 15.2152 255 11z"/>
<path style="fill:#838383; stroke:none;" d="M260 11L260 171C261.661 167.041 261 162.26 261 158L261 135L261 52L261 25C261 20.4644 261.769 15.2152 260 11z"/>
<path style="fill:#000000; stroke:none;" d="M261 11L261 171L266 171C262.74 153.441 265 133.84 265 116L265 11L261 11z"/>
<path style="fill:#2f2f2f; stroke:none;" d="M265 11L265 169C266.661 165.041 266 160.26 266 156L266 133L266 51L266 25C266 20.4644 266.769 15.2152 265 11z"/>
<path style="fill:#000000; stroke:none;" d="M271 11L271 171L286 171L286 11L271 11z"/>
<path style="fill:#7a7a7a; stroke:none;" d="M286 11L286 171C287.661 167.041 287 162.26 287 158L287 135L287 52L287 25C287 20.4644 287.769 15.2152 286 11z"/>
<path style="fill:#cfcfcf; stroke:none;" d="M291 11L291 171C292.769 166.785 292 161.536 292 157L292 130L292 47L292 24C292 19.7397 292.661 14.9586 291 11z"/>
<path style="fill:#000000; stroke:none;" d="M292 11L292 171L297 171L297 11L292 11z"/>
<path style="fill:#7b7b7b; stroke:none;" d="M307 11L307 171C308.661 167.041 308 162.26 308 158L308 135L308 52L308 25C308 20.4644 308.769 15.2152 307 11z"/>
<path style="fill:#000000; stroke:none;" d="M308 11L308 171L312 171L312 11L308 11z"/>
<path style="fill:#323232; stroke:none;" d="M312 11L312 171C313.769 166.785 313 161.536 313 157L313 130L313 47L313 24C313 19.7397 313.661 14.9586 312 11z"/>
<path style="fill:#7c7c7c; stroke:none;" d="M333 11L333 171C334.661 167.041 334 162.26 334 158L334 135L334 52L334 25C334 20.4644 334.769 15.2152 333 11z"/>
<path style="fill:#000000; stroke:none;" d="M334 11L334 171L338 171L338 11L334 11z"/>
<path style="fill:#2e2e2e; stroke:none;" d="M338 11L338 171C339.661 167.041 339 162.26 339 158L339 135L339 52L339 25C339 20.4644 339.769 15.2152 338 11z"/>
<path style="fill:#000000; stroke:none;" d="M344 11L344 171L360 171C357.52 160.585 359 148.669 359 138L359 76L359 35C359 27.0997 358.161 18.7235 360 11L344 11M365 11L365 171L370 171L370 11L365 11z"/>
<path style="fill:#d1d1d1; stroke:none;" d="M370 11L370 171C371.769 166.785 371 161.536 371 157L371 130L371 47L371 24C371 19.7397 371.661 14.9586 370 11z"/>
<path style="fill:#838383; stroke:none;" d="M380 11L380 171C381.769 166.785 381 161.536 381 157L381 130L381 47L381 24C381 19.7397 381.661 14.9586 380 11z"/>
<path style="fill:#000000; stroke:none;" d="M381 11L381 171L396 171L396 11L381 11z"/>
<path style="fill:#cfcfcf; stroke:none;" d="M396 11L396 171C397.769 166.785 397 161.536 397 157L397 130L397 47L397 24C397 19.7397 397.661 14.9586 396 11z"/>
<path style="fill:#828282; stroke:none;" d="M401 11L401 171C402.769 166.785 402 161.536 402 157L402 130L402 47L402 24C402 19.7397 402.661 14.9586 401 11z"/>
<path style="fill:#000000; stroke:none;" d="M402 11L402 171L406 171L406 11L402 11z"/>
<path style="fill:#303030; stroke:none;" d="M406 11L406 171C407.769 166.785 407 161.536 407 157L407 130L407 47L407 24C407 19.7396 407.661 14.9586 406 11z"/>
<path style="fill:#2f2f2f; stroke:none;" d="M417 11L417 171C418.769 166.785 418 161.536 418 157L418 130L418 47L418 24C418 19.7396 418.661 14.9586 417 11z"/>
<path style="fill:#000000; stroke:none;" d="M418 11L418 171L427 171L427 11L418 11z"/>
<path style="fill:#838383; stroke:none;" d="M427 11L427 171C428.661 167.041 428 162.26 428 158L428 135L428 52L428 25C428 20.4644 428.769 15.2152 427 11z"/>
<path style="fill:#cecece; stroke:none;" d="M432 11L432 171C433.661 167.041 433 162.26 433 158L433 135L433 52L433 25C433 20.4644 433.769 15.2152 432 11z"/>
<path style="fill:#000000; stroke:none;" d="M433 11L433 171L443 171L443 11L433 11z"/>
<path style="fill:#cbcbcb; stroke:none;" d="M443 11L443 171C444.769 166.785 444 161.536 444 157L444 130L444 47L444 24C444 19.7396 444.661 14.9586 443 11z"/>
<path style="fill:#d1d1d1; stroke:none;" d="M453 11L453 171C454.769 166.785 454 161.536 454 157L454 130L454 47L454 24C454 19.7397 454.661 14.9586 453 11z"/>
<path style="fill:#000000; stroke:none;" d="M454 11L454 171L459 171L459 11L454 11z"/>
<path style="fill:#cecece; stroke:none;" d="M479 11L479 171C480.769 166.785 480 161.535 480 157L480 130L480 47L480 24C480 19.7396 480.661 14.9586 479 11z"/>
<path style="fill:#000000; stroke:none;" d="M480 11L480 171L485 171L485 11L480 11z"/>
<path style="fill:#303030; stroke:none;" d="M490 11L490 171C491.769 166.785 491 161.536 491 157L491 130L491 47L491 24C491 19.7397 491.661 14.9586 490 11z"/>
<path style="fill:#000000; stroke:none;" d="M491 11L491 171L495 171L495 11L491 11z"/>
<path style="fill:#7f7f7f; stroke:none;" d="M495 11L495 171C496.661 167.041 496 162.26 496 158L496 135L496 52L496 25C496 20.4644 496.769 15.2152 495 11z"/>
<path style="fill:#cbcbcb; stroke:none;" d="M500 11L500 171C501.769 166.785 501 161.536 501 157L501 130L501 47L501 24C501 19.7396 501.661 14.9586 500 11z"/>
<path style="fill:#000000; stroke:none;" d="M501 11L501 171L506 171L506 11L501 11z"/>
<path style="fill:#838383; stroke:none;" d="M119 12L119 171C120.661 167.041 120 162.26 120 158L120 135L120 52L120 26C120 21.4645 120.769 16.2151 119 12z"/>
<path style="fill:#313131; stroke:none;" d="M359 12L359 170C360.661 166.041 360 161.26 360 157L360 134L360 52L360 26C360 21.4645 360.769 16.2151 359 12z"/>
<path style="fill:#cccccc; stroke:none;" d="M9 13L9 171C10.7687 166.785 10 161.536 10 157L10 131L10 49L10 26C10 21.7397 10.6611 16.9586 9 13z"/>
<path style="fill:#989898; stroke:none;" d="M166 168L166 171C166.696 169.446 166.696 169.554 166 168z"/>
<path style="fill:#c2c2c2; stroke:none;" d="M255 170L256 171L255 170z"/>
<path style="fill:#d5d5d5; stroke:none;" d="M10 171C11.769 171.779 13.0359 171.912 15 172C13.231 171.221 11.9641 171.088 10 171z"/>
<path style="fill:#d0d0d0; stroke:none;" d="M20 171C22.0521 171.874 23.7472 171.953 26 172C23.9479 171.126 22.2528 171.047 20 171M31 171C32.769 171.779 34.0359 171.912 36 172C34.231 171.221 32.9641 171.088 31 171M41 171C46.959 173.5 55.5639 172 62 172C56.041 169.5 47.4361 171 41 171z"/>
<path style="fill:#dadada; stroke:none;" d="M73 171C74.2484 171.685 74.5484 171.749 76 172C74.7516 171.315 74.4516 171.251 73 171z"/>
<path style="fill:#bababa; stroke:none;" d="M76.6667 171.333C76.2222 171.778 77.2778 171.722 77.3333 171.667C77.7778 171.222 76.7222 171.278 76.6667 171.333z"/>
<path style="fill:#d0d0d0; stroke:none;" d="M88 171C91.4324 172.44 95.2998 172 99 172C95.5676 170.56 91.7002 171 88 171z"/>
<path style="fill:#cbcbcb; stroke:none;" d="M109 171C112.432 172.44 116.3 172 120 172C116.568 170.56 112.7 171 109 171z"/>
<path style="fill:#c7c7c7; stroke:none;" d="M125 171C128.163 172.327 131.586 172 135 172C131.837 170.673 128.414 171 125 171z"/>
<path style="fill:#c3c3c3; stroke:none;" d="M146 171C147.769 171.779 149.036 171.912 151 172C149.231 171.221 147.964 171.088 146 171z"/>
<path style="fill:#bdbdbd; stroke:none;" d="M167 171C168.769 171.779 170.036 171.912 172 172C170.231 171.221 168.964 171.088 167 171z"/>
<path style="fill:#d0d0d0; stroke:none;" d="M177 171C182.959 173.5 191.564 172 198 172C192.041 169.5 183.436 171 177 171z"/>
<path style="fill:#d1d1d1; stroke:none;" d="M203 171C204.769 171.779 206.036 171.912 208 172C206.231 171.221 204.964 171.088 203 171z"/>
<path style="fill:#d0d0d0; stroke:none;" d="M214 171C217.163 172.327 220.586 172 224 172C220.837 170.673 217.414 171 214 171z"/>
<path style="fill:#d9d9d9; stroke:none;" d="M234 171C237.432 172.44 241.3 172 245 172C241.568 170.56 237.7 171 234 171z"/>
<path style="fill:#aaaaaa; stroke:none;" d="M250 171L251 172L250 171z"/>
<path style="fill:#d7d7d7; stroke:none;" d="M251 171C252.506 171.683 253.315 171.826 255 172C253.494 171.317 252.685 171.174 251 171z"/>
<path style="fill:#cccccc; stroke:none;" d="M261 171C262.769 171.779 264.036 171.912 266 172C264.231 171.221 262.964 171.088 261 171z"/>
<path style="fill:#d0d0d0; stroke:none;" d="M271 171C275.724 172.982 281.91 172 287 172C282.276 170.018 276.09 171 271 171z"/>
<path style="fill:#dbdbdb; stroke:none;" d="M292 171C293.769 171.779 295.036 171.912 297 172C295.231 171.221 293.964 171.088 292 171z"/>
<path style="fill:#d2d2d2; stroke:none;" d="M308 171C309.769 171.779 311.036 171.912 313 172C311.231 171.221 309.964 171.088 308 171z"/>
<path style="fill:#cdcdcd; stroke:none;" d="M334 171C335.769 171.779 337.036 171.912 339 172C337.231 171.221 335.964 171.088 334 171z"/>
<path style="fill:#cecece; stroke:none;" d="M344 171C348.724 172.982 354.91 172 360 172C355.276 170.018 349.09 171 344 171z"/>
<path style="fill:#cdcdcd; stroke:none;" d="M365 171C366.769 171.779 368.036 171.912 370 172C368.231 171.221 366.964 171.088 365 171z"/>
<path style="fill:#d0d0d0; stroke:none;" d="M381 171C385.471 172.876 391.183 172 396 172C391.529 170.124 385.817 171 381 171z"/>
<path style="fill:#c3c3c3; stroke:none;" d="M402 171C403.769 171.779 405.036 171.912 407 172C405.231 171.221 403.964 171.088 402 171z"/>
<path style="fill:#d0d0d0; stroke:none;" d="M417 171C420.432 172.44 424.3 172 428 172C424.568 170.56 420.7 171 417 171M433 171C436.163 172.327 439.586 172 443 172C439.837 170.673 436.414 171 433 171z"/>
<path style="fill:#cdcdcd; stroke:none;" d="M454 171C455.769 171.779 457.036 171.912 459 172C457.231 171.221 455.964 171.088 454 171M480 171C481.769 171.779 483.036 171.912 485 172C483.231 171.221 481.964 171.088 480 171z"/>
<path style="fill:#d2d2d2; stroke:none;" d="M490 171C492.052 171.874 493.747 171.953 496 172C493.948 171.126 492.253 171.047 490 171z"/>
<path style="fill:#d7d7d7; stroke:none;" d="M501 171C502.769 171.779 504.036 171.912 506 172C504.231 171.221 502.964 171.088 501 171z"/>
</svg>
